<mxfile host="app.diagrams.net" modified="2023-11-09T09:33:23.553Z" agent="Mozilla/5.0 (Windows NT 10.0; Win64; x64; rv:109.0) Gecko/20100101 Firefox/116.0" etag="KmojxVolEYTTHOHZYelF" version="22.1.0" type="github">
  <diagram id="C5RBs43oDa-KdzZeNtuy" name="Page-1">
    <mxGraphModel dx="1035" dy="545" grid="1" gridSize="10" guides="1" tooltips="1" connect="1" arrows="1" fold="1" page="1" pageScale="1" pageWidth="827" pageHeight="1169" math="0" shadow="0">
      <root>
        <mxCell id="WIyWlLk6GJQsqaUBKTNV-0" />
        <mxCell id="WIyWlLk6GJQsqaUBKTNV-1" parent="WIyWlLk6GJQsqaUBKTNV-0" />
        <mxCell id="GXUfFiMbQxMTC3M_htCL-0" value="start" style="ellipse;whiteSpace=wrap;html=1;" vertex="1" parent="WIyWlLk6GJQsqaUBKTNV-1">
          <mxGeometry x="280" y="180" width="120" height="80" as="geometry" />
        </mxCell>
        <mxCell id="GXUfFiMbQxMTC3M_htCL-4" style="edgeStyle=orthogonalEdgeStyle;rounded=0;orthogonalLoop=1;jettySize=auto;html=1;entryX=0.5;entryY=0;entryDx=0;entryDy=0;" edge="1" parent="WIyWlLk6GJQsqaUBKTNV-1" source="GXUfFiMbQxMTC3M_htCL-1" target="GXUfFiMbQxMTC3M_htCL-3">
          <mxGeometry relative="1" as="geometry" />
        </mxCell>
        <mxCell id="GXUfFiMbQxMTC3M_htCL-1" value="workDays, wages" style="shape=parallelogram;perimeter=parallelogramPerimeter;whiteSpace=wrap;html=1;fixedSize=1;" vertex="1" parent="WIyWlLk6GJQsqaUBKTNV-1">
          <mxGeometry x="230" y="350" width="240" height="90" as="geometry" />
        </mxCell>
        <mxCell id="GXUfFiMbQxMTC3M_htCL-2" style="edgeStyle=orthogonalEdgeStyle;rounded=0;orthogonalLoop=1;jettySize=auto;html=1;entryX=0.5;entryY=0;entryDx=0;entryDy=0;" edge="1" parent="WIyWlLk6GJQsqaUBKTNV-1" source="GXUfFiMbQxMTC3M_htCL-0" target="GXUfFiMbQxMTC3M_htCL-1">
          <mxGeometry relative="1" as="geometry" />
        </mxCell>
        <mxCell id="GXUfFiMbQxMTC3M_htCL-7" style="edgeStyle=orthogonalEdgeStyle;rounded=0;orthogonalLoop=1;jettySize=auto;html=1;entryX=0.5;entryY=0;entryDx=0;entryDy=0;" edge="1" parent="WIyWlLk6GJQsqaUBKTNV-1" source="GXUfFiMbQxMTC3M_htCL-3" target="GXUfFiMbQxMTC3M_htCL-6">
          <mxGeometry relative="1" as="geometry" />
        </mxCell>
        <mxCell id="GXUfFiMbQxMTC3M_htCL-9" style="edgeStyle=orthogonalEdgeStyle;rounded=0;orthogonalLoop=1;jettySize=auto;html=1;" edge="1" parent="WIyWlLk6GJQsqaUBKTNV-1" source="GXUfFiMbQxMTC3M_htCL-3" target="GXUfFiMbQxMTC3M_htCL-8">
          <mxGeometry relative="1" as="geometry">
            <mxPoint x="530" y="580" as="targetPoint" />
          </mxGeometry>
        </mxCell>
        <mxCell id="GXUfFiMbQxMTC3M_htCL-3" value="workDays&amp;gt;26" style="rhombus;whiteSpace=wrap;html=1;" vertex="1" parent="WIyWlLk6GJQsqaUBKTNV-1">
          <mxGeometry x="275" y="520" width="150" height="110" as="geometry" />
        </mxCell>
        <mxCell id="GXUfFiMbQxMTC3M_htCL-11" style="edgeStyle=orthogonalEdgeStyle;rounded=0;orthogonalLoop=1;jettySize=auto;html=1;" edge="1" parent="WIyWlLk6GJQsqaUBKTNV-1" source="GXUfFiMbQxMTC3M_htCL-6" target="GXUfFiMbQxMTC3M_htCL-10">
          <mxGeometry relative="1" as="geometry" />
        </mxCell>
        <mxCell id="GXUfFiMbQxMTC3M_htCL-6" value="money=(workDays-26)*wages*150/100+ wages*26" style="shape=parallelogram;perimeter=parallelogramPerimeter;whiteSpace=wrap;html=1;fixedSize=1;" vertex="1" parent="WIyWlLk6GJQsqaUBKTNV-1">
          <mxGeometry x="230" y="710" width="280" height="140" as="geometry" />
        </mxCell>
        <mxCell id="GXUfFiMbQxMTC3M_htCL-12" style="edgeStyle=orthogonalEdgeStyle;rounded=0;orthogonalLoop=1;jettySize=auto;html=1;" edge="1" parent="WIyWlLk6GJQsqaUBKTNV-1" source="GXUfFiMbQxMTC3M_htCL-8" target="GXUfFiMbQxMTC3M_htCL-10">
          <mxGeometry relative="1" as="geometry" />
        </mxCell>
        <mxCell id="GXUfFiMbQxMTC3M_htCL-8" value="&lt;br&gt;money=wages*26&lt;br&gt;" style="shape=parallelogram;perimeter=parallelogramPerimeter;whiteSpace=wrap;html=1;fixedSize=1;" vertex="1" parent="WIyWlLk6GJQsqaUBKTNV-1">
          <mxGeometry x="610" y="505" width="360" height="125" as="geometry" />
        </mxCell>
        <mxCell id="GXUfFiMbQxMTC3M_htCL-10" value="end" style="ellipse;whiteSpace=wrap;html=1;" vertex="1" parent="WIyWlLk6GJQsqaUBKTNV-1">
          <mxGeometry x="750" y="890" width="120" height="80" as="geometry" />
        </mxCell>
      </root>
    </mxGraphModel>
  </diagram>
</mxfile>
